<?xml version="1.0" encoding="UTF-8" standalone="no"?>
<!DOCTYPE svg PUBLIC "-//W3C//DTD SVG 1.1//EN" "http://www.w3.org/Graphics/SVG/1.1/DTD/svg11.dtd">
<svg width="100%" height="100%" viewBox="0 0 411 508" version="1.1" xmlns="http://www.w3.org/2000/svg" xmlns:xlink="http://www.w3.org/1999/xlink" xml:space="preserve" xmlns:serif="http://www.serif.com/" style="fill-rule:evenodd;clip-rule:evenodd;stroke-linejoin:round;stroke-miterlimit:2;">
    <g transform="matrix(0.739982,0,0,0.739794,53.34,66.0354)">
        <g id="Capa_2">
            <g id="Outline">
                <g id="SaladBowl">
                    <path d="M0,302.44C0,415.55 92,507.58 205.14,507.58C205.187,507.58 205.233,507.58 205.28,507.58C317.74,507.58 410.28,415.04 410.28,302.58C410.28,302.533 410.28,302.487 410.28,302.44C410.275,297.779 406.441,293.945 401.78,293.94L8.5,293.94C3.839,293.945 0.005,297.779 0,302.44ZM393.09,310.94C392.518,323.696 390.652,336.361 387.52,348.74L22.78,348.74C19.63,336.364 17.757,323.698 17.19,310.94L393.09,310.94ZM24.69,355.74L385.6,355.74C362.044,435.482 288.288,490.592 205.14,490.58C119.9,490.58 47.73,433.6 24.69,355.74Z" style="fill:rgb(39,173,204);fill-rule:nonzero;"/>
                    <path d="M264.28,452.88C283.462,444.609 300.516,432.086 314.15,416.26C314.815,415.487 315.785,415.042 316.805,415.042C318.727,415.042 320.308,416.623 320.308,418.545C320.308,419.383 320.007,420.195 319.46,420.83C305.111,437.463 287.172,450.624 267,459.32C266.563,459.505 266.094,459.6 265.62,459.6C265.617,459.6 265.614,459.6 265.612,459.6C263.692,459.6 262.112,458.02 262.112,456.1C262.112,454.7 262.952,453.429 264.24,452.88L264.28,452.88Z" style="fill:rgb(39,173,204);fill-rule:nonzero;"/>
                    <path d="M378.42,110.16C394.87,92.79 390.66,67.16 390.47,66.16C389.767,62.103 386.212,59.111 382.095,59.111C380.065,59.111 378.101,59.838 376.56,61.16L339.24,93.17L350.55,37.09C350.662,36.537 350.718,35.974 350.718,35.409C350.718,30.746 346.881,26.909 342.218,26.909C341.161,26.909 340.114,27.106 339.13,27.49C338.01,27.92 311.5,38.49 304.13,63.78C300.75,75.32 301.91,87.72 307.55,100.78C300.268,99.639 292.819,100.183 285.78,102.37C273.51,106.37 264.11,115.61 257.85,129.8C255.947,134.243 254.327,138.802 253,143.45C253,143.55 252.94,143.66 252.91,143.76C243.56,175.7 238.18,229.26 239.2,257.42C239.501,266.855 245.229,275.311 253.88,279.09C257.029,280.488 260.435,281.213 263.88,281.22C269.705,281.214 275.34,279.132 279.77,275.35C292.68,264.41 310.4,246.02 326.03,227.35C338.14,212.87 348.09,199.35 354.8,188.25C357.298,184.196 359.535,179.987 361.5,175.65C367.77,161.47 368.26,148.31 362.96,136.54C360.719,131.65 357.631,127.195 353.84,123.38C363.93,121.18 372.15,116.78 378.42,110.16ZM321.8,123.16L322.36,123.44L322.63,123.57L322.71,123.57L322.9,123.64L323.24,123.77L323.42,123.84C323.76,123.95 341.42,129.9 347.51,143.59C350.75,150.86 350.25,159.1 345.97,168.78C344.729,171.518 343.344,174.189 341.82,176.78L327.67,169.23C327.141,168.927 326.541,168.767 325.931,168.767C324.011,168.767 322.431,170.347 322.431,172.267C322.431,173.593 323.184,174.809 324.37,175.4L338.18,182.77C330.74,194.13 322.612,205.024 313.84,215.39L286.63,202.86C286.171,202.648 285.671,202.539 285.165,202.539C283.244,202.539 281.664,204.119 281.664,206.04C281.664,207.404 282.461,208.649 283.7,209.22L309.16,221C295.16,237.37 279.98,252.94 268.8,262.41C267.415,263.589 265.654,264.237 263.835,264.237C259.733,264.237 256.321,260.94 256.18,256.84C255.25,231.25 259.85,183.71 267.99,153L295.14,165.19C295.589,165.394 296.077,165.5 296.57,165.5C298.49,165.5 300.07,163.92 300.07,162C300.07,160.627 299.262,159.375 298.01,158.81L269.93,146.2C270.904,142.985 272.056,139.827 273.38,136.74C277.66,127.06 283.38,121.14 290.96,118.64C305.26,113.87 321.63,123 321.8,123.11L321.8,123.16ZM329.88,53.65L322.18,91.79C319,83.37 318.39,75.65 320.39,68.7C322.174,62.922 325.447,57.714 329.88,53.6L329.88,53.65ZM372.42,87.13C371.216,91.392 369.016,95.307 366,98.55C362,102.77 356.423,105.573 349.27,106.96L372.42,87.13Z" style="fill:rgb(39,173,204);fill-rule:nonzero;"/>
                    <path d="M153.92,151.61C141.36,120.61 112.86,100.2 83.81,100.2L83,100.2C82.91,99.96 82.81,99.71 82.71,99.47C77,85.5 59.76,79.26 44.21,85.56C37.054,88.382 31.141,93.677 27.55,100.48C23.917,107.213 23.451,115.222 26.28,122.33C27.444,125.217 29.14,127.859 31.28,130.12C18.79,150.63 17,178.29 27,203.05C39.57,234.05 67.68,254.42 96.88,254.47C101.42,261.94 109.95,266.27 119.17,266.27C123.08,266.264 126.951,265.5 130.57,264.02C144.85,258.24 152.22,243.02 147,230.18C146.85,229.83 146.7,229.48 146.54,229.13C161.86,208.26 164.86,178.6 153.92,151.61ZM129.67,222.93C126.655,226.242 126.757,231.4 129.9,234.59C130.468,235.162 130.917,235.842 131.22,236.59C132.89,240.7 129.66,246.06 124.22,248.29C118.78,250.52 112.67,248.92 111,244.8C110.888,244.49 110.798,244.173 110.73,243.85C109.794,239.673 105.838,236.824 101.58,237.26C77.58,239.69 53.45,223 42.79,196.69C33.79,174.53 36.51,149.77 49.68,133.62C50.918,132.103 51.594,130.204 51.594,128.247C51.594,124.946 49.672,121.932 46.68,120.54C44.62,119.655 42.974,118.016 42.08,115.96C41.176,113.433 41.406,110.635 42.71,108.29C44.43,105.08 47.25,102.594 50.65,101.29C57.39,98.55 64.87,100.63 66.98,105.82C67.381,106.845 67.568,107.94 67.53,109.04C67.528,109.115 67.527,109.191 67.527,109.266C67.527,113.923 71.36,117.756 76.017,117.756C76.443,117.756 76.869,117.724 77.29,117.66C79.501,117.324 81.734,117.157 83.97,117.16C106.19,117.16 128.26,133.4 138.22,157.96C147.62,181.32 144.28,206.81 129.67,222.93Z" style="fill:rgb(39,173,204);fill-rule:nonzero;"/>
                    <path d="M119,211.83C118.522,212.069 117.994,212.192 117.46,212.19C115.546,212.181 113.976,210.604 113.976,208.69C113.976,207.359 114.736,206.138 115.93,205.55C125.717,200.718 129.808,188.699 125,178.9C124.781,178.434 124.668,177.926 124.668,177.412C124.668,175.492 126.248,173.912 128.168,173.912C129.485,173.912 130.695,174.655 131.29,175.83C133.089,179.51 134.024,183.552 134.024,187.648C134.024,197.916 128.147,207.325 118.92,211.83L119,211.83Z" style="fill:rgb(39,173,204);fill-rule:nonzero;"/>
                    <path d="M197.13,264.73C197.13,264.733 197.13,264.737 197.13,264.74C197.13,273.6 204.42,280.89 213.28,280.89C222.14,280.89 229.43,273.6 229.43,264.74C229.43,255.88 222.14,248.59 213.28,248.59C213.277,248.59 213.273,248.59 213.27,248.59C204.422,248.606 197.146,255.882 197.13,264.73ZM204.13,264.73C204.13,259.71 208.26,255.58 213.28,255.58C218.3,255.58 222.43,259.71 222.43,264.73C222.43,269.75 218.3,273.88 213.28,273.88C213.277,273.88 213.273,273.88 213.27,273.88C208.254,273.875 204.13,269.746 204.13,264.73Z" style="fill:rgb(39,173,204);fill-rule:nonzero;"/>
                    <path d="M131.88,59C131.88,48.654 123.366,40.14 113.02,40.14C102.674,40.14 94.16,48.654 94.16,59C94.16,69.339 102.661,77.849 113,77.86C123.35,77.86 131.869,69.35 131.88,59ZM124.88,59C124.88,59.003 124.88,59.007 124.88,59.01C124.88,65.516 119.526,70.87 113.02,70.87C106.514,70.87 101.16,65.516 101.16,59.01C101.16,52.511 106.501,47.161 113,47.15C119.508,47.145 124.869,52.492 124.88,59Z" style="fill:rgb(39,173,204);fill-rule:nonzero;"/>
                    <path d="M404.31,215.06C404.31,215.057 404.31,215.053 404.31,215.05C404.31,203.892 395.128,194.71 383.97,194.71C372.812,194.71 363.63,203.892 363.63,215.05C363.63,226.208 372.812,235.39 383.97,235.39C383.98,235.39 383.99,235.39 384,235.39C395.139,235.363 404.294,226.199 404.31,215.06ZM397.31,215.06C397.31,222.378 391.288,228.4 383.97,228.4C376.652,228.4 370.63,222.378 370.63,215.06C370.63,207.742 376.652,201.72 383.97,201.72C383.98,201.72 383.99,201.72 384,201.72C391.305,201.742 397.305,207.755 397.31,215.06Z" style="fill:rgb(39,173,204);fill-rule:nonzero;"/>
                    <path d="M25.46,257.78C25.46,257.783 25.46,257.787 25.46,257.79C25.46,264.005 30.575,269.12 36.79,269.12C43.005,269.12 48.12,264.005 48.12,257.79C48.12,251.575 43.005,246.46 36.79,246.46C30.58,246.465 25.471,251.57 25.46,257.78ZM32.46,257.78C32.46,255.405 34.415,253.45 36.79,253.45C39.165,253.45 41.12,255.405 41.12,257.78C41.12,260.155 39.165,262.11 36.79,262.11C34.415,262.11 32.46,260.155 32.46,257.78Z" style="fill:rgb(39,173,204);fill-rule:nonzero;"/>
                    <path d="M283.38,32.8C283.38,26.585 278.265,21.47 272.05,21.47C265.835,21.47 260.72,26.585 260.72,32.8C260.72,39.015 265.835,44.13 272.05,44.13C272.053,44.13 272.057,44.13 272.06,44.13C278.27,44.119 283.375,39.01 283.38,32.8ZM276.38,32.8C276.38,35.175 274.425,37.13 272.05,37.13C269.675,37.13 267.72,35.175 267.72,32.8C267.72,30.425 269.675,28.47 272.05,28.47C272.053,28.47 272.057,28.47 272.06,28.47C274.432,28.475 276.38,30.428 276.38,32.8Z" style="fill:rgb(39,173,204);fill-rule:nonzero;"/>
                    <path d="M215.62,156.21C231,135.87 247.79,104.62 240,71.32C233.54,43.48 211.13,19.79 173.42,0.9C172.241,0.312 170.941,0.006 169.623,0.006C166.33,0.006 163.32,1.918 161.92,4.9C150.92,28.3 141.22,51.43 143.92,77.08C146.98,106.46 166.2,133.46 202.68,159.63C203.374,160.127 204.139,160.514 204.95,160.78C203.73,179.36 200.06,195.26 194.2,207.16C193.962,207.642 193.838,208.173 193.838,208.711C193.838,210.041 194.597,211.262 195.79,211.85C196.273,212.084 196.803,212.207 197.34,212.21C198.67,212.208 199.889,211.451 200.48,210.26C206.87,197.26 210.82,180.03 212.03,159.99C212.925,159.454 213.712,158.755 214.35,157.93C214.77,157.39 215.21,156.82 215.65,156.23L215.62,156.21ZM211.88,131.29C210.31,107 205.15,83 197.49,65.55C196.947,64.249 195.669,63.397 194.26,63.397C192.34,63.397 190.76,64.977 190.76,66.897C190.76,67.402 190.869,67.901 191.08,68.36C199.34,87.2 204.57,114.02 205.3,140.36C177.71,119 163.13,97.68 160.8,75.3C158.87,56.72 165.29,38.56 173.57,20.19C201.84,35.86 218.62,54.33 223.47,75.19C228.17,95.33 221.22,115.24 211.88,131.29Z" style="fill:rgb(39,173,204);fill-rule:nonzero;"/>
                </g>
            </g>
        </g>
    </g>
</svg>
